<svg xmlns="http://www.w3.org/2000/svg" width="360" height="120" viewBox="0 0 360 120" fill="none">
  <path d="M31 68c24-34 40-42 49-25 10 18-11 56-24 43-11-12 22-42 48-50 18-5 22 7 11 24-8 13-10 22-4 21 12-2 34-34 42-57 4-11 10-10 10 2 0 24-7 53-17 69 22-11 41-29 55-53 5-8 11-5 9 4-6 22-9 37-6 38 5 2 19-18 29-42 5-12 12-11 13 2 1 16-2 30-8 43 18-11 32-27 42-49 4-9 11-8 12 2 1 17-2 31-9 43 14-4 31-17 50-38" stroke="#1d2677" stroke-width="5" stroke-linecap="round" stroke-linejoin="round"/>
  <path d="M74 92c54 5 120 5 210-2" stroke="#1d2677" stroke-width="3" stroke-linecap="round" opacity="0.75"/>
</svg>
